<svg width="220" height="120" viewBox="0 0 220 120" fill="none" xmlns="http://www.w3.org/2000/svg">
  <defs>
    <linearGradient id="ticketBody" x1="0" y1="0" x2="220" y2="120" gradientUnits="userSpaceOnUse">
      <stop offset="0" stop-color="#FF2D95"/>
      <stop offset="0.5" stop-color="#FF8C3A"/>
      <stop offset="1" stop-color="#FFF65C"/>
    </linearGradient>
    <linearGradient id="ticketStroke" x1="0" y1="0" x2="220" y2="120" gradientUnits="userSpaceOnUse">
      <stop offset="0" stop-color="#FFFFFF" stop-opacity="0.8"/>
      <stop offset="1" stop-color="#FFFFFF" stop-opacity="0.2"/>
    </linearGradient>
  </defs>
  <path d="M15 10H205C211.627 10 217 15.3726 217 22V38C205 38 205 82 217 82V98C217 104.627 211.627 110 205 110H15C8.37258 110 3 104.627 3 98V82C15 82 15 38 3 38V22C3 15.3726 8.37258 10 15 10Z" fill="url(#ticketBody)"/>
  <path d="M15 10.5H205C211.351 10.5 216.5 15.6487 216.5 22V37.3446C205.21 37.8285 205.21 82.1715 216.5 82.6554V98C216.5 104.351 211.351 109.5 205 109.5H15C8.64872 109.5 3.5 104.351 3.5 98V82.6554C14.79 82.1715 14.79 37.8285 3.5 37.3446V22C3.5 15.6487 8.64872 10.5 15 10.5Z" stroke="url(#ticketStroke)" stroke-opacity="0.9"/>
  <path d="M152 20H198" stroke="white" stroke-opacity="0.45" stroke-width="2" stroke-linecap="round"/>
  <path d="M152 100H198" stroke="white" stroke-opacity="0.45" stroke-width="2" stroke-linecap="round"/>
  <text x="150" y="70" fill="#120714" font-family="'Orbitron', 'Noto Sans JP', sans-serif" font-size="22" letter-spacing="0.25em" text-anchor="middle">FREE</text>
  <path d="M60 30L80 45L60 60L40 45L60 30Z" fill="#fff" fill-opacity="0.15"/>
  <path d="M60 65L75 77L60 90L45 77L60 65Z" fill="#fff" fill-opacity="0.2"/>
  <circle cx="120" cy="24" r="4" fill="#FFFFFF" fill-opacity="0.65"/>
  <circle cx="120" cy="96" r="4" fill="#FFFFFF" fill-opacity="0.45"/>
</svg>
