<svg width="250" height="140" viewBox="0 0 250 140" fill="none" xmlns="http://www.w3.org/2000/svg">
  <defs>
    <linearGradient id="epicTicketBody" x1="0" y1="0" x2="250" y2="140" gradientUnits="userSpaceOnUse">
      <stop offset="0" stop-color="#FF2D95"/>
      <stop offset="0.5" stop-color="#C43DFF"/>
      <stop offset="1" stop-color="#6A4CFF"/>
    </linearGradient>
    <linearGradient id="epicTicketStroke" x1="0" y1="0" x2="250" y2="140" gradientUnits="userSpaceOnUse">
      <stop offset="0" stop-color="#FFFFFF" stop-opacity="0.95"/>
      <stop offset="1" stop-color="#FFFFFF" stop-opacity="0.35"/>
    </linearGradient>
  </defs>
  <path d="M24 14H226C232.627 14 238 19.3726 238 26V46C226 46 226 94 238 94V114C238 120.627 232.627 126 226 126H24C17.3726 126 12 120.627 12 114V94C24 94 24 46 12 46V26C12 19.3726 17.3726 14 24 14Z" fill="url(#epicTicketBody)"/>
  <path d="M24 14.5H226C232.351 14.5 237.5 19.6487 237.5 26V45.5381C226.146 46.022 226.146 93.978 237.5 94.4619V114C237.5 120.351 232.351 125.5 226 125.5H24C17.6487 125.5 12.5 120.351 12.5 114V94.4619C23.8538 93.978 23.8538 46.022 12.5 45.5381V26C12.5 19.6487 17.6487 14.5 24 14.5Z" stroke="url(#epicTicketStroke)" stroke-opacity="0.95"/>
  <path d="M180 30H225" stroke="white" stroke-opacity="0.55" stroke-width="2" stroke-linecap="round"/>
  <path d="M180 112H225" stroke="white" stroke-opacity="0.55" stroke-width="2" stroke-linecap="round"/>
  <text x="160" y="78" fill="#1E0010" font-family="'Orbitron','Noto Sans JP',sans-serif" font-size="24" letter-spacing="0.25em" text-anchor="middle">2FLOOR</text>
  <path d="M85 38L112 58L85 78L58 58L85 38Z" fill="#fff" fill-opacity="0.12"/>
  <path d="M85 82L107 99L85 116L63 99L85 82Z" fill="#fff" fill-opacity="0.2"/>
  <circle cx="130" cy="32" r="5" fill="#FFFFFF" fill-opacity="0.65"/>
  <circle cx="130" cy="118" r="5" fill="#FFFFFF" fill-opacity="0.45"/>
</svg>
